<?xml version="1.0" encoding="utf-8"?>
<!-- Designed by Vexels.com - 2019 All Rights Reserved - https://vexels.com/terms-and-conditions/  -->
<svg version="1.1" id="Capa_1" xmlns="http://www.w3.org/2000/svg" xmlns:xlink="http://www.w3.org/1999/xlink" x="0px" y="0px"
	 viewBox="0 0 1200 1200" enable-background="new 0 0 1200 1200" xml:space="preserve">
<g>
	<path fill="none" d="M431.405,303.958c15.955-1.26,31.983-1.706,46.152-1.228C463.118,301.654,448.279,302.012,431.405,303.958z"/>
	<path fill="none" d="M655.019,350.794c-21.224-11.521-41.029-20.132-61.614-26.832
		C614.709,331.179,635.385,340.136,655.019,350.794z"/>
	<g>
		<path fill="#D62D46" d="M655.019,350.794c-19.634-10.658-40.31-19.615-61.614-26.832c-31.849-10.366-65.582-16.115-109.459-20.664
			c-2.125-0.22-4.253-0.409-6.389-0.568c-14.169-0.478-30.197-0.032-46.152,1.228c-18.23,2.103-38.89,6.087-64.092,12.216
			c5.092,5.461,9.387,11.751,12.632,18.398c0.969,1.984,1.833,3.952,2.645,5.913v0c0.001,0.002,0.002,0.004,0.002,0.006
			c2.905,7.014,4.783,13.888,5.488,20.692c22.517,7.731,47.749,22.46,56.527,34.737c14.857,20.779,12.967,50.084-3.946,68.374
			c-26.83,29.016-61.988,49.979-92.264,75.113c-27.145,22.535-52.576,48.979-65.875,82.219
			c-12.565,31.405-19.547,65.466-26.121,98.558c13.266-1.066,26.503-1.194,39.191-0.725c23.263,0.859,47.965,6.16,67.781,17.948
			c-1.712-45.417,27.845-114.055,59.284-144.403c32.675-31.542,74.325-51.963,116.01-69.989
			c41.685-18.026,84.521-34.366,122.293-59.583c17.311-11.557,34.597-26.87,37.65-47.459
			C702.698,388.401,679.517,364.092,655.019,350.794z"/>
		<path fill="#D62D46" d="M966.803,608.737c-9.037-19.849-4.992-43.519-3.503-64.468c1.539-21.657,1.408-43.394-0.17-65.047
			c-3.095-42.473-12.548-80.031-30.626-118.541c-12.25-26.094-29.369-49.04-48.794-70.295c-38.21-41.81-95.716-70.22-149.941-84.262
			c-62.987-16.311-129.837-24.949-194.912-20.929c79.277,4.554,134.015,17.149,134.015,17.149
			c93.17,22.564,147.53,79.142,170.093,106.084c15.749,18.805,22.674,33.581,31.628,56.417c8.954,22.836,5.721,58.796-5.983,80.352
			c-17.357,31.968-39.66,41.299-72.268,57.421c-16.85,8.331-33.049,19.06-44.041,34.309s-16.06,35.668-9.588,53.317
			c2.094,5.711,5.294,10.95,8.726,15.972c22.885,33.477,56.764,58.489,93.758,75.099c33.417,15.005,66.354,17.358,102.059,21.449
			c15.498-12.39,33.124-22.059,52.917-27.718c11.275-3.224,22.803-4.897,34.235-5.13
			C1008.332,657.547,978.899,635.306,966.803,608.737z"/>
	</g>
	<g>
		<path fill="#F33043" d="M845.196,681.315c-36.993-16.611-70.873-41.622-93.758-75.099c-3.432-5.021-6.632-10.261-8.726-15.972
			c-6.472-17.648-1.403-38.067,9.588-53.317s27.19-25.978,44.041-34.309c32.608-16.123,54.911-25.454,72.268-57.421
			c11.705-21.556,14.938-57.516,5.983-80.352c-8.954-22.836-15.879-37.612-31.628-56.417
			c-22.562-26.942-76.923-83.52-170.093-106.084c0,0-54.738-12.595-134.015-17.149c-2.367,0.146-4.737,0.27-7.099,0.45
			c-77.986,5.945-147.261,47.242-199.977,108.586c-0.006,1.18,0.017,2.348-0.036,3.548c13.212,0.938,25.081,7.622,34.397,17.135
			c0.401,0.409,0.78,0.842,1.171,1.261c25.203-6.129,45.862-10.113,64.092-12.216c16.874-1.947,31.713-2.304,46.152-1.228
			c2.136,0.159,4.264,0.348,6.389,0.568c43.877,4.549,77.61,10.297,109.459,20.664c20.585,6.7,40.39,15.311,61.614,26.832
			c24.498,13.298,47.68,37.607,43.59,65.18c-3.054,20.589-20.34,35.901-37.65,47.459c-37.771,25.217-80.607,41.557-122.293,59.583
			c-41.685,18.026-83.335,38.447-116.01,69.989c-31.438,30.348-60.995,98.986-59.284,144.403
			c17.688,10.521,31.484,26.208,36.877,48.536c51.671-18.164,109.911-8.568,153.026,25.934
			c48.161-38.493,122.01-35.725,166.652,6.963c41.676-48.171,110.974-65.495,170.415-42.242
			c13.622-28.287,32.637-54.426,56.912-73.833C911.549,698.673,878.613,696.32,845.196,681.315z"/>
	</g>
	<g>
		<path fill="#E8EEEF" d="M199.573,446.318c13.335-0.741,22.442,0.351,33.502,7.759c9.093,6.091,17.88,11.318,28.708,13.739
			c18.252,4.08,39.089,0.874,53.295-11.972c8.469-7.658,14.549-18.048,17.1-29.177c2.397-10.459-0.074-21.881,3.81-31.996
			c0.642-1.672,0.596-2.374,0.421-2.645c0.48-0.047,1.489-0.329,3.517-1.287c3.804-1.797,7.973-2.704,11.691-4.701
			c12.785-6.867,33.959-29.463,30.929-46.251c-1.464-8.074-9.742-17.726-15.235-23.613c-0.391-0.419-0.77-0.852-1.171-1.261
			c-9.316-9.514-21.186-16.198-34.397-17.135c0.053-1.2,0.03-2.368,0.036-3.548c0.329-64.811-69.845-99.308-129.759-94.21
			c-65.55,5.578-101.924,61.399-96.72,123.6c-2.712,0.645-5.35,1.473-7.923,2.44c-1.843,39.028,6.963,78.441,39.93,103.716
			C156.05,444.144,176.462,447.603,199.573,446.318z"/>
		<path fill="#E8EEEF" d="M1034.407,669.916c-11.432,0.233-22.961,1.906-34.235,5.13c-19.793,5.659-37.419,15.328-52.917,27.718
			c-24.276,19.407-43.29,45.546-56.912,73.833c-59.442-23.253-128.739-5.929-170.415,42.242
			c-44.642-42.687-118.491-45.456-166.652-6.963c-43.115-34.502-101.355-44.098-153.026-25.934
			c-5.393-22.328-19.19-38.015-36.877-48.536c-19.816-11.787-44.519-17.088-67.781-17.948c-12.688-0.469-25.926-0.34-39.191,0.725
			c-37.479,3.012-75.182,13.684-101.356,40.885c-3.299,3.428-6.286,7.042-9.01,10.782c11.447,60.12,68.539,101.242,130.335,92.271
			c35.761,52.95,94.899,86.748,159.512,88.019c18.635,0.367,37.671-2.001,55.661-6.883c8.111-2.2,15.997-5.04,23.746-8.283
			c14.555-6.093,19.728-6.508,34.471-0.383c35.639,14.807,72.324,24.692,110.654,29.368c34.933,4.262,75.872,7.012,109.838-4.288
			c35.654-11.861,53.294-45.629,81.753-67.357c12.709-9.704,35.929-3.294,51.449-3.208c16.58,0.093,33.091-1.071,49.511-3.338
			c32.231-4.45,64.16-13.93,92.248-30.667c50.426-30.048,84.537-84.741,84.544-142.341c0.478,0.643,0.999,1.23,1.465,1.886
			C1108.407,684.521,1071.939,669.152,1034.407,669.916z"/>
	</g>
	<g>
		<path fill="#D7D3C8" d="M164.154,472.402c13.791,0.892,24.037,14.852,35.424,21.995c11.236,7.048,24.004,12.122,37.014,14.707
			c25.247,5.017,50.031,1.001,73.446-9.225c20.782-9.076,37.092-23.731,48.959-43.013c5.654-9.187,10.369-19.275,12.793-29.832
			c1.292-5.624,0.746-11.664,1.983-17.152c0.742-3.289,2.908-7.352,5.514-11.677c0.76-1.262,1.464-2.521,2.125-3.779
			c0.231-0.44,0.431-0.88,0.65-1.32c0.405-0.813,0.81-1.625,1.175-2.437c0.244-0.544,0.459-1.087,0.685-1.63
			c0.293-0.703,0.586-1.406,0.85-2.108c0.224-0.598,0.423-1.196,0.626-1.794c0.218-0.641,0.432-1.282,0.625-1.923
			c0.193-0.642,0.368-1.283,0.536-1.925c0.155-0.589,0.304-1.178,0.439-1.766c0.156-0.685,0.3-1.37,0.43-2.055
			c0.102-0.534,0.192-1.069,0.277-1.603c0.117-0.734,0.225-1.468,0.312-2.203c0.055-0.467,0.096-0.934,0.139-1.401
			c0.073-0.799,0.142-1.597,0.18-2.396c0.018-0.365,0.019-0.73,0.03-1.094c0.025-0.902,0.046-1.804,0.027-2.707
			c-0.002-0.152-0.015-0.303-0.019-0.455c-0.042-1.473-0.154-2.95-0.309-4.429c-0.71-6.803-2.57-13.674-5.475-20.687
			c-0.001-0.002-0.002-0.004-0.002-0.006v0c-0.831,6.037-2.564,11.959-5.109,17.538c-1.378,3.019-2.984,5.942-4.836,8.719
			c-5.313,7.965-12.586,14.762-21.025,19.295c-3.707,1.992-7.924,2.922-11.691,4.701c-2.029,0.958-3.038,1.24-3.518,1.287
			c0.175,0.271,0.221,0.973-0.421,2.645c-3.739,9.732-1.037,23.461-4.257,34.015c-3.147,10.315-8.614,19.889-16.653,27.158
			c-14.206,12.846-35.043,16.052-53.295,11.972c-10.828-2.421-19.615-7.648-28.708-13.739c-11.06-7.408-20.167-8.5-33.502-7.759
			c-23.111,1.285-43.523-2.174-62.264-16.542c-32.968-25.275-41.773-64.688-39.93-103.716v0c-0.005,0.002-0.01,0.004-0.015,0.006
			c-7.467,2.808-14.312,6.919-20.343,12.003c-0.091,0.077-0.184,0.151-0.276,0.229c-0.742,0.631-1.467,1.283-2.183,1.943
			c-0.149,0.137-0.3,0.272-0.448,0.41c-0.671,0.629-1.327,1.273-1.974,1.927c-0.182,0.184-0.366,0.367-0.546,0.553
			c-0.616,0.635-1.219,1.282-1.812,1.938c-0.196,0.217-0.391,0.434-0.585,0.652c-0.569,0.644-1.127,1.297-1.674,1.96
			c-0.203,0.246-0.404,0.495-0.604,0.743c-0.528,0.656-1.048,1.32-1.555,1.994c-0.198,0.264-0.392,0.531-0.587,0.797
			c-0.495,0.675-0.982,1.356-1.454,2.047c-0.188,0.276-0.37,0.556-0.555,0.834c-0.462,0.696-0.92,1.394-1.36,2.105
			c-0.175,0.283-0.34,0.571-0.512,0.856c-0.433,0.72-0.863,1.441-1.273,2.175c-0.148,0.266-0.286,0.538-0.432,0.806
			c-0.416,0.768-0.831,1.537-1.222,2.319c-0.076,0.152-0.145,0.309-0.22,0.462c-1.29,2.623-2.424,5.322-3.409,8.077
			c-0.129,0.361-0.269,0.719-0.393,1.082c-0.218,0.638-0.41,1.285-0.611,1.929c-0.154,0.496-0.317,0.99-0.461,1.49
			c-0.175,0.605-0.329,1.217-0.488,1.827c-0.143,0.548-0.291,1.094-0.421,1.645c-0.14,0.588-0.261,1.18-0.387,1.771
			c-0.123,0.581-0.247,1.161-0.356,1.745c-0.108,0.578-0.201,1.159-0.295,1.74c-0.098,0.603-0.193,1.207-0.276,1.813
			c-0.078,0.571-0.144,1.143-0.208,1.715c-0.07,0.622-0.134,1.246-0.187,1.871c-0.048,0.563-0.089,1.128-0.123,1.692
			c-0.04,0.639-0.07,1.279-0.091,1.92c-0.019,0.557-0.034,1.114-0.04,1.672c-0.006,0.653-0.001,1.306,0.011,1.96
			c0.01,0.548,0.019,1.096,0.042,1.644c0.027,0.67,0.071,1.339,0.118,2.009c0.037,0.536,0.072,1.071,0.122,1.607
			c0.065,0.69,0.15,1.38,0.236,2.071c0.063,0.514,0.121,1.028,0.196,1.541c0.107,0.725,0.239,1.448,0.37,2.172
			c0.087,0.48,0.162,0.962,0.26,1.441c0.162,0.796,0.353,1.59,0.545,2.384c0.097,0.404,0.18,0.809,0.285,1.213
			c0.311,1.195,0.653,2.387,1.034,3.575c6.688,20.878,22.86,37.644,42.165,47.476c9.879,5.032,20.503,8.337,31.489,9.79
			C139.708,475.386,151.655,471.594,164.154,472.402z"/>
		<path fill="#D7D3C8" d="M1131.219,716.648c-0.466-0.657-0.987-1.244-1.465-1.886c-0.007,57.601-34.118,112.294-84.544,142.341
			c-28.087,16.737-60.017,26.217-92.248,30.667c-16.42,2.268-32.931,3.431-49.511,3.338c-15.519-0.086-38.739-6.496-51.449,3.208
			c-28.459,21.728-46.099,55.496-81.753,67.357c-33.966,11.3-74.905,8.55-109.838,4.288c-38.33-4.677-75.015-14.561-110.654-29.368
			c-14.743-6.126-19.916-5.71-34.471,0.383c-7.749,3.244-15.635,6.083-23.746,8.283c-17.99,4.881-37.026,7.25-55.661,6.883
			c-64.612-1.271-123.751-35.069-159.512-88.019c-61.804,8.972-118.904-32.162-130.34-92.294c-5.608,7.685-9.979,15.96-13,24.544
			c-0.016,0.046-0.033,0.092-0.049,0.138c-0.736,2.103-1.391,4.224-1.963,6.36c-0.019,0.07-0.036,0.14-0.054,0.21
			c-1.709,6.438-2.66,13.005-2.817,19.591c-0.003,0.139-0.011,0.278-0.013,0.417c-0.038,2.065,0.009,4.132,0.13,6.197
			c0.014,0.238,0.028,0.477,0.044,0.714c0.137,2.033,0.347,4.063,0.641,6.088c0.033,0.224,0.072,0.447,0.106,0.671
			c0.319,2.072,0.706,4.139,1.193,6.195c0.015,0.066,0.036,0.132,0.051,0.198c0.491,2.051,1.074,4.091,1.735,6.118
			c0.05,0.154,0.093,0.309,0.144,0.463c0.653,1.959,1.402,3.903,2.216,5.834c0.126,0.298,0.247,0.596,0.376,0.893
			c0.816,1.87,1.712,3.724,2.684,5.561c0.169,0.319,0.343,0.636,0.516,0.954c1.007,1.844,2.082,3.672,3.25,5.475
			c0.155,0.239,0.321,0.476,0.48,0.714c1.25,1.889,2.567,3.759,3.999,5.594c30.484,39.094,81.164,46.743,127.797,45.651
			c50.929,64.185,139.922,93.115,219.094,70.525c8.683-2.478,17.175-5.613,25.414-9.309c8.741-3.922,19.187-7.74,28.37-4.061
			c5.548,2.222,10.892,6.756,16.229,9.637c18.782,10.141,39.043,17.653,59.858,22.352c41.111,9.281,84.547,8.099,125.208-2.879
			c41.356-11.166,79.782-32.694,109.87-63.295c6.088-6.192,11.64-13.688,21.312-14.686c4.643-0.479,10.341,1.114,15.008,1.654
			c13.322,1.543,26.74,2.044,40.14,1.474c24.822-1.055,49.602-5.518,73.192-13.316
			C1083.649,893.229,1194.546,805.839,1131.219,716.648z"/>
	</g>
</g>
</svg>
